{
  "asset": { "version": "2.0" },
  "extensionsUsed": ["KHR_texture_transform", "KHR_materials_emissive_strength"],
  "scene": 0,
  "scenes": [{ "nodes": [0] }],
  "nodes": [{ "mesh": 0 }],
  "meshes": [{ "primitives": [{ "attributes": { "POSITION": 0, "TEXCOORD_0": 1 }, "indices": 2, "material": 0 }] }],
  "materials": [{
    "doubleSided": true,
    "pbrMetallicRoughness": { "baseColorTexture": { "index": 0 }, "metallicFactor": 0, "roughnessFactor": 0.8 },
    "emissiveFactor": [1, 1, 1],
    "emissiveTexture": { "index": 0, "extensions": { "KHR_texture_transform": { "scale": [4, 4] } } },
    "extensions": { "KHR_materials_emissive_strength": { "emissiveStrength": 0.6 } }
  }],
  "textures": [{ "source": 0, "sampler": 0 }],
  "samplers": [{ "wrapS": 10497, "wrapT": 10497 }],
  "images": [{ "uri": "panel.png" }],
  "buffers": [{ "uri": "panel.bin", "byteLength": 92 }],
  "bufferViews": [
    { "buffer": 0, "byteOffset": 0, "byteLength": 48 },
    { "buffer": 0, "byteOffset": 48, "byteLength": 32 },
    { "buffer": 0, "byteOffset": 80, "byteLength": 12 }
  ],
  "accessors": [
    { "bufferView": 0, "componentType": 5126, "count": 4, "type": "VEC3", "min": [-1, 0, 0], "max": [1, 2, 0] },
    { "bufferView": 1, "componentType": 5126, "count": 4, "type": "VEC2" },
    { "bufferView": 2, "componentType": 5123, "count": 6, "type": "SCALAR" }
  ]
}
